<?xml version="1.0" encoding="utf-8"?>
<!-- Generator: Adobe Illustrator 16.0.0, SVG Export Plug-In . SVG Version: 6.00 Build 0)  -->
<!DOCTYPE svg PUBLIC "-//W3C//DTD SVG 1.1//EN" "http://www.w3.org/Graphics/SVG/1.1/DTD/svg11.dtd">
<svg version="1.1" xmlns="http://www.w3.org/2000/svg" xmlns:xlink="http://www.w3.org/1999/xlink" x="0px" y="0px" width="500px"
	 height="500px" viewBox="0 0 500 500" enable-background="new 0 0 500 500" xml:space="preserve">
<g id="background" display="none">
	<rect id="XMLID_170_" display="inline" fill="#2C3E50" width="500" height="500"/>
</g>
<g id="Layer_4">
	<circle fill="#2C3E50" cx="248.815" cy="249.816" r="245.185"/>
</g>
<g id="OBJECTS">
	<g id="XMLID_203_">
		<g id="XMLID_190_">
			<polygon id="XMLID_167_" fill="#DDB69B" points="386.582,436.105 220.082,465.105 220.082,342.354 386.582,313.354 			"/>
			<polygon id="XMLID_168_" fill="#937058" points="365.319,397.217 241.344,418.936 241.344,369.621 365.319,347.902 			"/>
			<linearGradient id="XMLID_2_" gradientUnits="userSpaceOnUse" x1="213.9673" y1="453.5283" x2="377.9676" y2="335.528">
				<stop  offset="0" style="stop-color:#DDB69B"/>
				<stop  offset="1" style="stop-color:#DDB69B;stop-opacity:0"/>
			</linearGradient>
			<polygon id="XMLID_189_" opacity="0.5" fill="url(#XMLID_2_)" points="386.582,436.105 220.082,465.105 220.082,342.354 
				386.582,313.354 			"/>
		</g>
		<g id="XMLID_197_">
			<polygon id="XMLID_166_" fill="#A57E63" points="220.082,465.105 130.582,436.105 130.582,313.953 220.082,342.354 			"/>
			<linearGradient id="XMLID_3_" gradientUnits="userSpaceOnUse" x1="128.9795" y1="408.584" x2="213.3126" y2="373.9174">
				<stop  offset="0" style="stop-color:#A57E63"/>
				<stop  offset="1" style="stop-color:#A57E63;stop-opacity:0"/>
			</linearGradient>
			<polygon id="XMLID_194_" opacity="0.5" fill="url(#XMLID_3_)" points="220.082,465.105 130.582,436.105 130.582,313.953 
				220.082,342.354 			"/>
		</g>
	</g>
	<g id="XMLID_202_">
		<g id="XMLID_196_">
			<polygon id="XMLID_164_" fill="#C69E83" points="390.582,312.657 218.878,342.563 218.878,312.657 390.582,282.75 			"/>
			<linearGradient id="XMLID_6_" gradientUnits="userSpaceOnUse" x1="220.8638" y1="337.96" x2="368.3644" y2="293.4597">
				<stop  offset="0" style="stop-color:#C69E83"/>
				<stop  offset="1" style="stop-color:#C69E83;stop-opacity:0"/>
			</linearGradient>
			<polygon id="XMLID_195_" opacity="0.5" fill="url(#XMLID_6_)" points="390.582,312.657 218.878,342.563 218.878,312.657 
				390.582,282.75 			"/>
		</g>
		<g id="XMLID_200_">
			<polygon id="XMLID_165_" fill="#937058" points="218.878,342.563 126.582,312.657 126.582,282.75 218.878,312.657 			"/>
			<linearGradient id="XMLID_7_" gradientUnits="userSpaceOnUse" x1="125.7549" y1="316.4697" x2="224.2552" y2="308.4697">
				<stop  offset="0" style="stop-color:#937058"/>
				<stop  offset="1" style="stop-color:#937058;stop-opacity:0"/>
			</linearGradient>
			<polygon id="XMLID_198_" opacity="0.5" fill="url(#XMLID_7_)" points="218.878,342.563 126.582,312.657 126.582,282.75 
				218.878,312.657 			"/>
		</g>
		<g id="XMLID_201_">
			<polygon id="XMLID_169_" fill="#DDB69B" points="298.285,252.844 126.582,282.75 218.878,312.657 390.582,282.75 			"/>
			<linearGradient id="XMLID_8_" gradientUnits="userSpaceOnUse" x1="197.2031" y1="297.5352" x2="334.2034" y2="264.535">
				<stop  offset="0" style="stop-color:#DDB69B"/>
				<stop  offset="1" style="stop-color:#DDB69B;stop-opacity:0"/>
			</linearGradient>
			<polygon id="XMLID_199_" opacity="0.5" fill="url(#XMLID_8_)" points="298.285,252.844 126.582,282.75 218.878,312.657 
				390.582,282.75 			"/>
			<polygon id="XMLID_172_" fill="#4C3F36" points="213.832,288.773 222.763,291.667 303.332,277.635 294.4,274.74 			"/>
		</g>
	</g>
	<g id="XMLID_177_">
		<g id="XMLID_180_">
			<path id="XMLID_178_" fill="#FFFFFF" d="M179.79,224.123c0,0-39.583-35.492-53.208-85.674l58.885-38.353
				c13.625,50.183,53.208,85.674,53.208,85.674L179.79,224.123z"/>
			<path id="XMLID_187_" fill="#D0E8F7" d="M200.037,135.579c-5.831-10.618-11.062-22.562-14.57-35.482l-31.374,20.435
				c3.016,13.474,2.72,23.248,2.72,23.248L200.037,135.579z"/>
			<path id="XMLID_185_" fill="#D0E8F7" d="M202.749,140.359l-19.731,4.802c-1.968,26.733,3.868,52.075,9.985,70.356l45.673-29.747
				C238.675,185.771,219.104,168.223,202.749,140.359z"/>
		</g>
		<g id="XMLID_174_">
			<path id="XMLID_176_" fill="#FFFFFF" d="M212.97,246.793c0,0-20.047-49.24-10.325-100.322l69.733-8.699
				c-9.723,51.082,10.324,100.323,10.324,100.323L212.97,246.793z"/>
			<path id="XMLID_184_" fill="#D0E8F7" d="M223.079,245.533l59.625-7.438c0,0-11.087-27.242-12.77-62.218l-2.323-0.274
				C235.971,194.459,226.031,224.814,223.079,245.533z"/>
		</g>
		<path id="XMLID_181_" fill="#FFFFFF" d="M282.221,186.094c-55.333,23.667-57.333,85.465-57.333,85.465l45.894,11.744l18.69-3.255
			c2.604-17.389,13.281-59.15,56.509-77.639L282.221,186.094z"/>
		<g id="XMLID_173_">
			<path id="XMLID_183_" fill="#FFFFFF" d="M358.821,52.941c-8.635,38.88-29.049,67.811-29.049,67.811l65.965,24.229
				c0,0,29.339-41.581,32.547-92.04l-67.807-28.748L358.821,52.941z"/>
			<path id="XMLID_179_" fill="#D0E8F7" d="M359.501,42.739l-0.686,10.203c-8.636,38.878-29.043,67.811-29.043,67.811l42.48,15.603
				c10.75-14.049,19.672-33.219,19.046-57.865L359.501,42.739z"/>
		</g>
		<g id="XMLID_175_">
			<path id="XMLID_193_" fill="#FFFFFF" d="M72.728,52.941c2.502,12.985,6.55,26.857,12.99,40.25l69.625-9.528
				c-4.887-10.164-8.396-20.604-10.899-30.723l-11.382-45.34c0,0-46.827,7.606-59.05,15.128
				C67.666,26.634,72.728,52.941,72.728,52.941z"/>
			<path id="XMLID_192_" fill="#D0E8F7" d="M144.443,52.941l-4.55-14.595l-31.733,14.595L88.618,62.991
				c19.996,3.632,35.024,12.859,46.168,23.486l20.556-2.813C150.455,73.5,146.945,63.06,144.443,52.941z"/>
		</g>
		<g id="XMLID_171_">
			<path id="XMLID_191_" fill="#FFFFFF" d="M200.062,52.941c0,0-19.175-18.499-26.496-22.891
				c-7.896-4.737-57.135,22.891-57.135,22.891l-11.455,4.27c57.531,17.664,66.075,78.902,66.075,78.902l61.67-22.986
				C232.721,113.127,227.769,77.678,200.062,52.941z"/>
			<path id="XMLID_188_" fill="#D0E8F7" d="M213.466,67.825c-5.16,18.649-6.264,32.135-6.264,32.135l24.683,8.84
				C230.154,101.055,225.293,84.092,213.466,67.825z"/>
		</g>
		<path id="XMLID_186_" fill="#FFFFFF" d="M297.711,52.941l6.645-16.547c0,0-61.491-20.985-66.859-19.521
			c-4.442,1.211-12.417,36.068-12.417,36.068c-5.608,25.538-4.977,45.321-4.977,45.321l68.414,16.062
			C288.517,114.324,287.604,85.744,297.711,52.941z"/>
		<path id="XMLID_182_" fill="#FFFFFF" d="M334.612,43.227l-0.929,9.715c-2.875,53.029-50.98,78.956-50.98,78.956l43.02,49.808
			c0,0,54.433-29.331,50.961-89.413L334.612,43.227z"/>
	</g>
	<g>
		<g>
			<path fill="#F1F2F2" d="M271.114,399.61c0,0.148-0.106,0.268-0.312,0.348c-0.246,0.096-1.02,0.22-2.31,0.354
				c-1.182,0.123-1.941,0.16-2.278,0.123c-0.28-0.031-0.458-0.204-0.532-0.511c-0.281-1.167-0.507-1.794-0.659-1.854
				c-0.125-0.05-1.24,0.026-3.324,0.152c-1.405,0.085-2.161,0.15-2.247,0.229c-0.141,0.129-0.294,0.589-0.467,1.348
				c-0.158,0.692-0.352,1.076-0.572,1.139c-0.277,0.079-1.222,0.147-2.826,0.172c-1.265,0.02-1.899-0.104-1.899-0.345
				c0-0.215,0.934-2.849,2.803-7.956c2.022-5.525,3.126-8.603,3.299-9.156c0.1-0.318,0.215-0.483,0.348-0.49
				c0.224-0.011,0.568-0.005,1.035,0.01c0.468,0.016,0.814,0.014,1.046-0.001c0.224-0.015,0.555-0.051,0.988-0.11
				s0.759-0.101,0.974-0.117c0.157-0.012,0.305,0.115,0.434,0.376c0.408,0.826,1.59,3.725,3.546,8.608
				C270.128,396.841,271.114,399.387,271.114,399.61z M262.317,389.129c-0.044,0.001-0.461,1.188-0.877,2.424
				c-0.442,1.314-0.671,2.083-0.671,2.307c0,0.148,0.256,0.214,0.744,0.209c0.252-0.003,0.678-0.019,1.265-0.059
				c0.546-0.037,0.848-0.128,0.905-0.265c0.017-0.042,0.022-0.101,0.022-0.175c0-0.272-0.185-1.012-0.566-2.215
				C262.771,390.192,262.317,389.129,262.317,389.129z"/>
			<path fill="#F1F2F2" d="M280.833,392.833c0,1.679-0.707,3.235-2.118,4.654c-1.24,1.247-2.774,2.195-4.527,2.679
				c-0.063,0.018-0.121,0.025-0.163,0.031c-0.189,0.025-0.609-0.5-1.263-1.578s-0.981-1.746-0.981-2.003
				c0-0.091,0.067-0.155,0.189-0.196c1.191-0.404,1.993-0.761,2.38-1.004c0.858-0.541,1.289-1.242,1.289-2.086
				c0-0.537-0.281-1.105-0.843-1.683c-0.964-0.989-1.505-1.547-1.588-1.66c-0.571-0.782-0.855-1.703-0.855-2.745
				c0-1.513,0.703-2.851,2.094-4.041c1.142-0.977,2.58-1.785,4.206-2.228c0.088-0.023,0.161-0.035,0.211-0.043
				c0.124-0.02,0.226,0.066,0.298,0.252c0.218,0.563,0.715,1.58,1.501,3.031c0.024,0.045,0.037,0.087,0.037,0.12
				c0,0.141-0.072,0.225-0.222,0.249c-0.066,0.011-0.18,0.015-0.337,0.015c-0.157,0.001-0.276,0.006-0.359,0.02
				c-0.596,0.095-1.117,0.32-1.563,0.654c-0.53,0.398-0.807,0.876-0.807,1.438c0,0.504,0.305,1.076,0.894,1.72
				c1.051,1.149,1.604,1.772,1.649,1.83C280.55,391.018,280.833,391.933,280.833,392.833z"/>
			<path fill="#F1F2F2" d="M297.749,384.574c0,2.001-0.523,3.735-1.574,5.185c-1.119,1.543-2.673,2.518-4.649,2.905
				c-0.33,0.064-0.831,0.146-1.496,0.236c-0.666,0.092-1.162,0.166-1.492,0.229c-0.355,0.067-0.533,0.253-0.533,0.559
				c0,0.38,0.037,0.939,0.111,1.679c0.074,0.738,0.111,1.291,0.111,1.663c0,0.19-0.089,0.307-0.263,0.339
				c-0.504,0.095-1.257,0.221-2.266,0.374c-1.009,0.154-1.767,0.27-2.271,0.357c-0.239,0.041-0.361-0.061-0.361-0.3
				c0-0.918,0.017-2.299,0.046-4.144c0.028-1.844,0.043-3.225,0.043-4.143c0-2.596-0.109-5.304-0.333-8.127
				c-0.005-0.068-0.01-0.102-0.015-0.17c-0.017-0.154,0.106-0.273,0.37-0.352c0.645-0.191,2.069-0.479,4.269-0.889
				c1.298-0.241,2.543-0.465,3.733-0.663c1.956-0.326,3.543-0.028,4.737,0.902C297.139,381.169,297.749,382.623,297.749,384.574z
				 M292.803,385.777c0-1.927-0.94-2.7-2.817-2.339c-1.322,0.255-2.012,0.465-2.081,0.619c-0.052,0.116-0.085,1.078-0.085,2.88
				c0,0.257,0.007,0.633,0.027,1.129c0.021,0.497,0.033,0.874,0.033,1.13c0,0.166,0.744,0.111,2.231-0.176
				C291.906,388.674,292.803,387.588,292.803,385.777z"/>
			<path fill="#F1F2F2" d="M304.485,384.765c0,0.976,0.026,2.438,0.075,4.386c0.049,1.949,0.074,3.41,0.074,4.386
				c0,0.165-0.035,0.278-0.11,0.335c-0.017,0.013-0.124,0.053-0.322,0.119c-0.537,0.18-1.259,0.363-2.159,0.553
				c-1.208,0.254-1.976,0.384-2.306,0.385c-0.238,0.001-0.361-0.31-0.361-0.31s0.039-0.604,0.111-2.205
				c0.152-3.376,0.224-5.596,0.224-6.646c0-0.885-0.027-2.204-0.085-3.962c-0.058-1.757-0.089-3.079-0.089-3.964
				c0-0.182,0.095-0.292,0.285-0.332c0.257-0.054,0.644-0.122,1.16-0.205c0.517-0.084,0.903-0.154,1.159-0.208
				s0.633-0.145,1.133-0.274c0.5-0.131,0.883-0.223,1.139-0.276c0.24-0.051,0.355,0.014,0.355,0.195
				c0,0.885-0.044,2.227-0.139,4.015C304.535,382.545,304.485,383.88,304.485,384.765z"/>
			<path fill="#F1F2F2" d="M321.799,390.275c0,0.058-0.084,0.113-0.248,0.17c-0.313,0.107-1.102,0.283-2.366,0.53
				c-1.084,0.212-1.822,0.338-2.21,0.364c-0.181,0.013-0.288,0.007-0.312-0.002c-0.045-0.018-0.114-0.088-0.172-0.213
				c-0.131-0.281-0.304-0.747-0.546-1.329c-0.314-0.758-0.815-1.919-1.515-3.351c-0.142-0.289-1.027-0.322-1.027-0.322
				s-0.179,0.061-1.277,0.288c-0.124,0.025-0.187,0.249-0.187,0.671c0,0.563,0.05,1.391,0.153,2.485s0.157,1.924,0.157,2.486
				c0,0.141-0.043,0.243-0.112,0.271c-0.099,0.039-0.231,0.063-0.347,0.094c-0.488,0.135-1.247,0.31-2.28,0.526
				c-1.183,0.248-1.894,0.374-2.133,0.375c-0.24,0.001-0.362-0.099-0.362-0.306c0-0.909,0.044-2.295,0.131-4.149
				c0.087-1.854,0.132-3.235,0.132-4.153c0-3.497-0.081-6.212-0.237-8.139c-0.005-0.068-0.008-0.101-0.013-0.169
				c-0.008-0.139,0.12-0.265,0.389-0.37c0.269-0.106,1.535-0.423,3.793-0.942c1.529-0.352,2.745-0.618,3.654-0.803
				c1.885-0.384,3.426-0.258,4.615,0.359c1.346,0.698,2.021,1.956,2.021,3.767c0,1.207-0.173,2.203-0.521,2.989
				c-0.348,0.785-0.989,1.623-1.922,2.467c-0.188,0.169-0.285,0.428-0.285,0.428s0.502,0.929,1.511,2.817
				S321.799,390.061,321.799,390.275z M316.59,380.168c0-1.009-0.331-1.645-0.992-1.896c-0.51-0.194-1.314-0.181-2.405,0.044
				c-0.786,0.162-1.207,0.371-1.253,0.618c-0.053,0.287-0.074,1.106-0.074,2.446c0,0.189,0.002,0.47,0.011,0.84
				c0.008,0.37,0.012,0.649,0.012,0.831c0,0.041,0.136,0.054,0.399,0.039c0.502-0.028,1.035-0.102,1.589-0.215
				C315.687,382.504,316.59,381.606,316.59,380.168z"/>
			<path fill="#F1F2F2" d="M339.559,387.297c0,0.148-0.104,0.269-0.31,0.349c-0.246,0.097-1.018,0.22-2.308,0.389
				c-1.182,0.154-1.944,0.23-2.281,0.211c-0.28-0.017-0.459-0.179-0.533-0.481c-0.281-1.15-0.508-1.763-0.659-1.813
				c-0.125-0.042-1.236,0.089-3.32,0.425c-1.405,0.227-2.161,0.395-2.247,0.484c-0.141,0.147-0.298,0.625-0.471,1.406
				c-0.158,0.713-0.349,1.122-0.57,1.215c-0.277,0.117-1.224,0.312-2.828,0.604c-1.265,0.23-1.897,0.23-1.897-0.01
				c0-0.215,0.936-3.039,2.805-8.44c2.022-5.844,3.126-9.04,3.299-9.615c0.1-0.33,0.211-0.509,0.344-0.531
				c0.224-0.037,0.572-0.072,1.039-0.107c0.468-0.034,0.814-0.071,1.046-0.108c0.224-0.035,0.553-0.103,0.986-0.198
				s0.757-0.159,0.972-0.191c0.157-0.023,0.305,0.093,0.434,0.345c0.408,0.798,1.594,3.606,3.55,8.431
				C338.576,384.512,339.559,387.073,339.559,387.297z M330.766,377.225c-0.046,0.002-0.465,1.229-0.881,2.508
				c-0.442,1.36-0.671,2.155-0.671,2.379c0,0.148,0.255,0.183,0.744,0.127c0.251-0.028,0.68-0.086,1.267-0.178
				c0.546-0.086,0.848-0.197,0.905-0.339c0.017-0.044,0.024-0.103,0.024-0.177c0-0.272-0.188-0.998-0.57-2.169
				C331.215,378.245,330.766,377.225,330.766,377.225z"/>
			<path fill="#F1F2F2" d="M349.281,381.051c0,1.679-0.708,3.151-2.118,4.45c-1.24,1.143-2.78,1.988-4.531,2.409
				c-0.063,0.016-0.117,0.023-0.159,0.027c-0.189,0.019-0.609-0.522-1.263-1.613s-0.981-1.76-0.981-2.017
				c0-0.091,0.063-0.154,0.186-0.194c1.191-0.391,1.997-0.715,2.384-0.944c0.858-0.509,1.289-1.19,1.289-2.034
				c0-0.537-0.283-1.118-0.845-1.719c-0.964-1.03-1.505-1.598-1.588-1.713c-0.57-0.797-0.855-1.718-0.855-2.76
				c0-1.513,0.705-2.849,2.096-3.986c1.141-0.934,2.582-1.665,4.202-1.971c0.088-0.017,0.161-0.022,0.211-0.026
				c0.124-0.009,0.228,0.085,0.3,0.277c0.218,0.582,0.713,1.645,1.499,3.179c0.024,0.048,0.039,0.089,0.039,0.122
				c0,0.141-0.074,0.217-0.224,0.226c-0.066,0.004-0.18-0.002-0.337-0.018c-0.157-0.015-0.272-0.021-0.355-0.016
				c-0.596,0.038-1.121,0.219-1.566,0.518c-0.53,0.355-0.805,0.814-0.805,1.377c0,0.504,0.305,1.098,0.894,1.789
				c1.051,1.233,1.604,1.911,1.649,1.974C348.997,379.206,349.281,380.15,349.281,381.051z"/>
			<path fill="#F1F2F2" d="M356.375,377.379c0,0.976,0.024,2.444,0.073,4.402c0.05,1.959,0.078,3.426,0.078,4.401
				c0,0.165-0.039,0.271-0.114,0.313c-0.017,0.009-0.124,0.025-0.322,0.051c-0.537,0.069-1.257,0.106-2.157,0.126
				c-1.208,0.026-1.978,0.026-2.308-0.028c-0.238-0.039-0.359-0.369-0.359-0.369s0.039-0.597,0.111-2.187
				c0.152-3.352,0.224-5.557,0.224-6.606c0-0.885-0.029-2.211-0.087-3.979c-0.058-1.767-0.085-3.092-0.085-3.977
				c0-0.182,0.093-0.278,0.283-0.286c0.257-0.01,0.644-0.01,1.16,0c0.517,0.009,0.903,0.012,1.159,0.007s0.635-0.026,1.135-0.057
				c0.5-0.031,0.879-0.045,1.135-0.046c0.24-0.001,0.359,0.091,0.359,0.272c0,0.885-0.048,2.214-0.143,3.982
				C356.422,375.169,356.375,376.494,356.375,377.379z"/>
		</g>
	</g>
</g>
<g id="designed_by_freepik">
	<g id="XMLID_107_" display="none">
		<g id="XMLID_136_" display="inline">
			<g id="XMLID_155_">
				<path id="XMLID_163_" fill="#F9FBFC" d="M260.104,465.466c-0.433,0.442-0.804,0.931-1.108,1.453l-0.466-0.241
					c-0.066-0.298-0.349-0.503-0.658-0.467c-0.331,0.039-0.568,0.339-0.529,0.67s0.339,0.568,0.67,0.529
					c0.065-0.008,0.127-0.026,0.184-0.053l0.451,0.234c-0.251,0.554-0.433,1.139-0.539,1.744l0.746,0.131
					c0.23-1.306,0.85-2.506,1.792-3.472L260.104,465.466z"/>
				<path id="XMLID_162_" fill="#F9FBFC" d="M265.592,463.163c-0.171,0-0.341,0.007-0.51,0.018l-0.073-0.626
					c0.188-0.149,0.296-0.39,0.266-0.645c-0.046-0.394-0.402-0.675-0.796-0.629c-0.393,0.047-0.674,0.402-0.628,0.796
					c0.03,0.254,0.189,0.461,0.405,0.563l0.073,0.624c-0.714,0.116-1.403,0.332-2.06,0.646l0.327,0.684
					c0.934-0.447,1.941-0.673,2.995-0.673c0.496,0,0.993,0.053,1.475,0.157l0.161-0.741
					C266.692,463.223,266.143,463.163,265.592,463.163z"/>
				<path id="XMLID_161_" fill="#F9FBFC" d="M272.194,465.711c0.331-0.041,0.566-0.342,0.525-0.673
					c-0.04-0.331-0.342-0.565-0.672-0.525c-0.31,0.038-0.535,0.304-0.53,0.608l-0.416,0.363c-0.418-0.43-0.89-0.813-1.408-1.139
					l-0.403,0.641c1.134,0.715,2.021,1.727,2.563,2.926l0.69-0.313c-0.251-0.555-0.567-1.072-0.942-1.545l0.402-0.352
					C272.064,465.716,272.129,465.719,272.194,465.711z"/>
				<path id="XMLID_160_" fill="#F9FBFC" d="M265.044,473.372c-0.386,0.023-0.774,0.034-1.157,0.034
					c-0.88,0-1.732-0.061-2.478-0.179c-0.391-0.063-0.847-0.155-1.271-0.292c1.046,1.86,3.069,3.125,5.389,3.125
					c2.855,0,5.262-1.916,5.949-4.504c-0.682,0.449-1.506,0.825-2.459,1.123C267.839,473.047,266.464,473.286,265.044,473.372z"/>
				<path id="XMLID_156_" fill="#F9FBFC" d="M265.592,464.68c-3.353,0-6.079,2.666-6.079,5.943c0,0.426,0.046,0.849,0.137,1.262
					c0.674,0.482,2.706,0.89,5.348,0.73c2.879-0.173,5.297-0.957,6.672-2.158c-0.005-0.195-0.021-0.391-0.045-0.582
					C271.244,466.913,268.65,464.68,265.592,464.68z M263.433,471.194c-1.021,0-1.85-0.83-1.85-1.85c0-1.021,0.829-1.85,1.85-1.85
					c1.02,0,1.85,0.829,1.85,1.85C265.282,470.364,264.452,471.194,263.433,471.194z M268.17,470.286c-0.75,0-1.36-0.61-1.36-1.36
					s0.61-1.36,1.36-1.36s1.36,0.61,1.36,1.36S268.92,470.286,268.17,470.286z"/>
			</g>
			<path id="XMLID_153_" fill="#F9FBFC" d="M281.596,466.547c-0.295-0.116-0.806-0.309-1.383-0.237
				c-0.551,0.068-0.844,0.341-0.844,1.007v0.865h2.228v1.718h-2.228v5.454h-1.932v-5.454h-1.34v-1.718h1.34v-0.888
				c0-1.681,0.896-2.783,2.568-2.783c0.643,0,1.157,0.122,1.59,0.309V466.547z"/>
			<path id="XMLID_151_" fill="#F9FBFC" d="M286.298,469.879c-0.177-0.03-0.357-0.047-0.526-0.047c-0.896,0-1.51,0.548-1.51,1.614
				v3.907h-1.932v-7.172h1.873v0.785c0.451-0.674,1.14-0.978,2.021-0.978c0.414,0,0.848,0.128,1.094,0.337L286.298,469.879z"/>
			<path id="XMLID_148_" fill="#F9FBFC" d="M293.965,471.757c0,0.222-0.015,0.488-0.037,0.651h-5.084
				c0.207,1.036,0.933,1.487,1.843,1.487c0.621,0,1.295-0.251,1.813-0.688l1.132,1.243c-0.813,0.747-1.851,1.088-3.057,1.088
				c-2.198,0-3.723-1.495-3.723-3.753c0-2.257,1.48-3.797,3.626-3.797C292.544,467.989,293.958,469.521,293.965,471.757z
				 M288.851,471.091h3.175c-0.177-0.918-0.732-1.437-1.562-1.437C289.554,469.654,289.021,470.202,288.851,471.091z"/>
			<path id="XMLID_145_" fill="#F9FBFC" d="M301.618,471.757c0,0.222-0.015,0.488-0.037,0.651h-5.084
				c0.207,1.036,0.933,1.487,1.843,1.487c0.621,0,1.295-0.251,1.813-0.688l1.132,1.243c-0.814,0.747-1.851,1.088-3.057,1.088
				c-2.198,0-3.723-1.495-3.723-3.753c0-2.257,1.48-3.797,3.626-3.797C300.197,467.989,301.611,469.521,301.618,471.757z
				 M296.504,471.091h3.176c-0.178-0.918-0.733-1.437-1.563-1.437C297.207,469.654,296.674,470.202,296.504,471.091z"/>
			<path id="XMLID_142_" fill="#F9FBFC" d="M309.964,471.765c0,2.153-1.495,3.774-3.471,3.774c-0.963,0-1.644-0.378-2.109-0.933
				v3.708h-1.925v-10.133h1.888v0.792c0.466-0.584,1.154-0.984,2.139-0.984C308.469,467.989,309.964,469.61,309.964,471.765z
				 M304.287,471.765c0,1.132,0.748,1.976,1.843,1.976c1.14,0,1.851-0.881,1.851-1.976c0-1.096-0.711-1.977-1.851-1.977
				C305.035,469.788,304.287,470.632,304.287,471.765z"/>
			<path id="XMLID_139_" fill="#F9FBFC" d="M313.067,465.836c0,0.695-0.54,1.229-1.235,1.229c-0.696,0-1.229-0.533-1.229-1.229
				c0-0.696,0.533-1.244,1.229-1.244C312.527,464.592,313.067,465.14,313.067,465.836z M312.809,475.354h-1.932v-7.172h1.932
				V475.354z"/>
			<path id="XMLID_137_" fill="#F9FBFC" d="M316.032,470.735l2.701-2.554h2.369l-3.479,3.375l3.501,3.797h-2.376l-2.716-2.901v2.901
				h-1.932v-10.657h1.932V470.735z"/>
		</g>
		<g id="XMLID_108_" display="inline">
			<path id="XMLID_133_" fill="#F9FBFC" d="M184.413,475.289v-1.055c-0.527,0.718-1.392,1.23-2.388,1.23
				c-1.846,0-3.149-1.406-3.149-3.706c0-2.256,1.289-3.721,3.149-3.721c0.952,0,1.816,0.469,2.388,1.245v-3.765h1.099v9.771H184.413
				z M184.413,473.37v-3.208c-0.396-0.615-1.245-1.143-2.124-1.143c-1.421,0-2.271,1.172-2.271,2.739s0.85,2.725,2.271,2.725
				C183.167,474.483,184.017,473.985,184.413,473.37z"/>
			<path id="XMLID_130_" fill="#F9FBFC" d="M186.932,471.744c0-2.051,1.464-3.706,3.486-3.706c2.139,0,3.398,1.67,3.398,3.794v0.278
				h-5.728c0.088,1.333,1.025,2.446,2.549,2.446c0.806,0,1.626-0.322,2.183-0.894l0.527,0.718c-0.703,0.703-1.655,1.084-2.813,1.084
				C188.44,475.465,186.932,473.956,186.932,471.744z M190.403,468.946c-1.509,0-2.256,1.274-2.314,2.358h4.644
				C192.718,470.25,192.015,468.946,190.403,468.946z"/>
			<path id="XMLID_128_" fill="#F9FBFC" d="M194.607,474.352l0.571-0.791c0.469,0.542,1.362,1.011,2.329,1.011
				c1.084,0,1.67-0.513,1.67-1.216c0-1.714-4.38-0.659-4.38-3.281c0-1.099,0.952-2.036,2.637-2.036c1.201,0,2.051,0.454,2.622,1.025
				l-0.513,0.762c-0.424-0.513-1.201-0.894-2.109-0.894c-0.967,0-1.567,0.483-1.567,1.113c0,1.553,4.379,0.527,4.379,3.281
				c0,1.187-0.952,2.139-2.783,2.139C196.306,475.465,195.325,475.113,194.607,474.352z"/>
			<path id="XMLID_125_" fill="#F9FBFC" d="M201.477,466.471c0-0.41,0.337-0.747,0.732-0.747c0.41,0,0.747,0.337,0.747,0.747
				s-0.336,0.732-0.747,0.732C201.814,467.203,201.477,466.881,201.477,466.471z M201.667,475.289v-7.075h1.099v7.075H201.667z"/>
			<path id="XMLID_122_" fill="#F9FBFC" d="M204.582,477.105l0.557-0.82c0.586,0.703,1.289,0.967,2.3,0.967
				c1.172,0,2.27-0.571,2.27-2.124v-1.011c-0.512,0.718-1.376,1.26-2.373,1.26c-1.845,0-3.149-1.377-3.149-3.662
				c0-2.271,1.289-3.677,3.149-3.677c0.952,0,1.802,0.469,2.373,1.245v-1.069h1.099v6.87c0,2.344-1.641,3.076-3.369,3.076
				C206.237,478.16,205.417,477.926,204.582,477.105z M209.708,473.253v-3.091c-0.381-0.615-1.23-1.143-2.109-1.143
				c-1.421,0-2.271,1.128-2.271,2.695c0,1.553,0.849,2.695,2.271,2.695C208.478,474.41,209.328,473.868,209.708,473.253z"/>
			<path id="XMLID_120_" fill="#F9FBFC" d="M217.413,475.289v-4.629c0-1.245-0.629-1.641-1.582-1.641
				c-0.865,0-1.685,0.527-2.095,1.099v5.171h-1.099v-7.075h1.099v1.025c0.498-0.586,1.464-1.201,2.519-1.201
				c1.479,0,2.256,0.747,2.256,2.285v4.966H217.413z"/>
			<path id="XMLID_117_" fill="#F9FBFC" d="M219.933,471.744c0-2.051,1.465-3.706,3.486-3.706c2.138,0,3.398,1.67,3.398,3.794v0.278
				h-5.728c0.088,1.333,1.025,2.446,2.549,2.446c0.806,0,1.625-0.322,2.183-0.894l0.527,0.718c-0.703,0.703-1.655,1.084-2.813,1.084
				C221.441,475.465,219.933,473.956,219.933,471.744z M223.404,468.946c-1.509,0-2.256,1.274-2.314,2.358h4.643
				C225.718,470.25,225.015,468.946,223.404,468.946z"/>
			<path id="XMLID_114_" fill="#F9FBFC" d="M233.35,475.289v-1.055c-0.527,0.718-1.392,1.23-2.388,1.23
				c-1.845,0-3.149-1.406-3.149-3.706c0-2.256,1.289-3.721,3.149-3.721c0.952,0,1.817,0.469,2.388,1.245v-3.765h1.099v9.771H233.35z
				 M233.35,473.37v-3.208c-0.396-0.615-1.245-1.143-2.124-1.143c-1.421,0-2.271,1.172-2.271,2.739s0.85,2.725,2.271,2.725
				C232.105,474.483,232.954,473.985,233.35,473.37z"/>
			<path id="XMLID_111_" fill="#F9FBFC" d="M239.692,475.289v-9.771h1.099v3.765c0.572-0.776,1.421-1.245,2.388-1.245
				c1.846,0,3.149,1.465,3.149,3.721c0,2.3-1.304,3.706-3.149,3.706c-0.996,0-1.86-0.513-2.388-1.23v1.055H239.692z M242.9,474.483
				c1.436,0,2.285-1.157,2.285-2.725s-0.85-2.739-2.285-2.739c-0.864,0-1.729,0.527-2.109,1.143v3.208
				C241.171,473.985,242.036,474.483,242.9,474.483z"/>
			<path id="XMLID_109_" fill="#F9FBFC" d="M247.528,477.062c0.161,0.073,0.425,0.117,0.601,0.117c0.483,0,0.805-0.161,1.055-0.747
				l0.468-1.069l-2.959-7.148h1.187l2.358,5.801l2.344-5.801h1.201l-3.545,8.511c-0.425,1.025-1.143,1.421-2.08,1.436
				c-0.234,0-0.601-0.044-0.805-0.103L247.528,477.062z"/>
		</g>
	</g>
</g>
</svg>
